<svg width="24" height="24" viewBox="0 0 24 24" fill="none" xmlns="http://www.w3.org/2000/svg">
<path fill-rule="evenodd" clip-rule="evenodd" d="M1.17357 6.94583C-0.380854 7.46397 -0.394631 9.65775 1.15317 10.1954L9.75775 13.1841C10.2538 13.3564 10.6436 13.7463 10.8159 14.2423L13.8046 22.8468C14.3422 24.3946 16.536 24.3809 17.0542 22.8264L23.909 2.26203C24.3562 0.920287 23.0797 -0.356204 21.738 0.0910431L1.17357 6.94583ZM18.3724 5.61626C17.9287 5.17258 17.2094 5.17258 16.7657 5.61626L12.2176 10.1643C11.7739 10.608 11.7739 11.3274 12.2176 11.771C12.6613 12.2147 13.3806 12.2147 13.8243 11.771L18.3724 7.22296C18.8161 6.77928 18.8161 6.05994 18.3724 5.61626Z" fill="#F8B82C"/>
</svg>
