<svg width="29" height="29" viewBox="0 0 29 29" fill="none" xmlns="http://www.w3.org/2000/svg">
  <g clip-path="url(#clip0_12_44)">
    <path d="M9.86478 9.66675C9.16485 9.65579 8.49044 9.40209 7.95683 8.949C6.84379 7.92822 6.16948 6.51594 6.07545 5.00862C5.78183 1.99625 7.42516 0.218789 9.2002 0.0206219C9.62789 -0.0267973 10.0608 0.0123101 10.473 0.135616C10.8853 0.258923 11.2685 0.463908 11.6 0.738372C12.0944 1.18405 12.4958 1.72307 12.7811 2.32445C13.0665 2.92583 13.2301 3.57769 13.2626 4.24254C13.5333 7.0507 12.238 9.66675 9.86478 9.66675ZM9.46845 2.41675C8.77124 2.49408 8.35558 3.48371 8.48124 4.76816C8.51625 5.63107 8.87219 6.44982 9.47933 7.064C9.59435 7.17698 9.74719 7.24329 9.90828 7.25008C10.3324 7.20295 11.0151 6.11304 10.8544 4.47091C10.4412 2.21616 9.49866 2.41675 9.46845 2.42279V2.41675ZM3.82312 16.9167C3.12318 16.9058 2.44877 16.6521 1.91516 16.199C0.80212 15.1782 0.127811 13.7659 0.0337868 12.2586C-0.259838 9.24625 1.3835 7.46879 3.15854 7.27062C3.58621 7.22376 4.01893 7.26313 4.43112 7.38641C4.8433 7.50969 5.22658 7.71438 5.55829 7.98837C6.05271 8.43405 6.45413 8.97307 6.73948 9.57445C7.02482 10.1758 7.18845 10.8277 7.22095 11.4925C7.49162 14.3007 6.13466 16.9167 3.82312 16.9167ZM3.42679 9.66675C2.72958 9.74408 2.31391 10.7337 2.43958 12.0182C2.47459 12.8811 2.83052 13.6998 3.43766 14.314C3.55381 14.4253 3.70599 14.4913 3.86662 14.5001C4.29074 14.453 4.97345 13.363 4.81274 11.7209C4.49254 9.51208 3.45699 9.66675 3.42679 9.67279V9.66675ZM19.1351 9.66675C17.0713 9.68125 15.469 7.0495 15.7433 4.23891C15.7758 3.57407 15.9395 2.92221 16.2248 2.32083C16.5101 1.71945 16.9116 1.18042 17.406 0.734747C17.7371 0.461928 18.1195 0.258184 18.5306 0.135534C18.9417 0.0128836 19.3732 -0.0261888 19.7997 0.0206219C21.5747 0.218789 23.2181 1.99625 22.9244 5.00862C22.8307 6.51637 22.1564 7.92913 21.0431 8.9502C20.5093 9.40286 19.8349 9.65613 19.1351 9.66675ZM18.1491 4.47091C17.9884 6.1082 18.6711 7.19812 19.0952 7.25008C19.2533 7.24386 19.404 7.18177 19.5206 7.07487C20.1277 6.46069 20.4837 5.64195 20.5187 4.77904C20.7724 1.612 18.3666 1.81862 18.1491 4.47091ZM25.1768 16.9167C22.9269 16.9167 21.5107 14.2995 21.785 11.4889C21.8175 10.8241 21.9811 10.1722 22.2665 9.57083C22.5518 8.96945 22.9532 8.43042 23.4477 7.98475C23.7783 7.71093 24.1605 7.50631 24.5717 7.38302C24.9829 7.25972 25.4146 7.22027 25.8414 7.267C27.6164 7.46516 29.2597 9.24262 28.9661 12.255C28.8724 13.7627 28.1981 15.1755 27.0847 16.1966C26.5515 16.6505 25.877 16.9051 25.1768 16.9167ZM24.1908 11.7209C24.0301 13.3582 24.7128 14.4481 25.1369 14.5001C25.2945 14.4918 25.4445 14.43 25.5622 14.3249C26.1694 13.7107 26.5253 12.8919 26.5603 12.029C26.6812 10.7446 26.2703 9.75495 25.5731 9.67762C25.5429 9.66675 24.3056 9.5592 24.1908 11.7209ZM19.3333 29.0001C18.3004 29.0207 17.2804 28.7681 16.3765 28.2678C15.7979 27.963 15.1539 27.8038 14.5 27.8038C13.846 27.8038 13.202 27.963 12.6234 28.2678C8.9827 30.3087 4.73904 28.066 4.83329 22.9584C4.83329 17.3578 10.2792 12.0834 14.5 12.0834C18.7207 12.0834 24.1666 17.3566 24.1666 22.9584C24.1666 26.5157 22.1789 29.0001 19.3333 29.0001ZM14.5 25.3751C15.5327 25.3548 16.5525 25.6069 17.4567 26.1061C20.1598 27.5779 21.7922 25.5829 21.7499 22.9584C21.7499 18.8742 17.4954 14.5001 14.5 14.5001C11.5045 14.5001 7.24995 18.8742 7.24995 22.9584C7.21129 25.5793 8.83045 27.5779 11.5432 26.1061C12.4474 25.6069 13.4672 25.3548 14.5 25.3751Z" fill="#FBC95C"/>
  </g>
  <defs>
    <clipPath id="clip0_12_44">
      <rect width="29" height="29" fill="white"/>
    </clipPath>
  </defs>
</svg>
