<svg width="30" height="30" viewBox="0 0 30 30" fill="none" xmlns="http://www.w3.org/2000/svg">
  <g clip-path="url(#clip0_12_46)">
    <path d="M15 7.5C14.0111 7.5 13.0444 7.79324 12.2222 8.34265C11.3999 8.89206 10.759 9.67295 10.3806 10.5866C10.0022 11.5002 9.90315 12.5055 10.0961 13.4755C10.289 14.4454 10.7652 15.3363 11.4645 16.0355C12.1637 16.7348 13.0546 17.211 14.0246 17.4039C14.9945 17.5969 15.9998 17.4978 16.9134 17.1194C17.8271 16.741 18.6079 16.1001 19.1574 15.2779C19.7068 14.4556 20 13.4889 20 12.5C20 11.1739 19.4732 9.90215 18.5355 8.96447C17.5979 8.02678 16.3261 7.5 15 7.5ZM15 15C14.5056 15 14.0222 14.8534 13.6111 14.5787C13.2 14.304 12.8795 13.9135 12.6903 13.4567C12.5011 12.9999 12.4516 12.4972 12.548 12.0123C12.6445 11.5273 12.8826 11.0819 13.2322 10.7322C13.5819 10.3826 14.0273 10.1445 14.5123 10.048C14.9972 9.95157 15.4999 10.0011 15.9567 10.1903C16.4135 10.3795 16.804 10.7 17.0787 11.1111C17.3534 11.5222 17.5 12.0055 17.5 12.5C17.5 13.163 17.2366 13.7989 16.7678 14.2678C16.2989 14.7366 15.663 15 15 15Z" fill="#000000"/>
    <path d="M15 30C13.9474 30.0054 12.9089 29.7585 11.9713 29.2801C11.0338 28.8016 10.2245 28.1055 9.61124 27.25C4.84749 20.6787 2.43124 15.7387 2.43124 12.5662C2.43124 9.23281 3.75545 6.0359 6.11255 3.6788C8.46964 1.3217 11.6666 -0.00250244 15 -0.00250244C18.3334 -0.00250244 21.5303 1.3217 23.8874 3.6788C26.2445 6.0359 27.5687 9.23281 27.5687 12.5662C27.5687 15.7387 25.1525 20.6787 20.3887 27.25C19.7755 28.1055 18.9662 28.8016 18.0287 29.2801C17.0911 29.7585 16.0526 30.0054 15 30ZM15 2.72625C12.3905 2.72923 9.88877 3.76716 8.04358 5.61234C6.1984 7.45752 5.16047 9.95927 5.15749 12.5687C5.15749 15.0812 7.52374 19.7275 11.8187 25.6512C12.1834 26.1535 12.6617 26.5622 13.2146 26.8441C13.7676 27.1259 14.3794 27.2729 15 27.2729C15.6206 27.2729 16.2324 27.1259 16.7854 26.8441C17.3383 26.5622 17.8166 26.1535 18.1812 25.6512C22.4762 19.7275 24.8425 15.0812 24.8425 12.5687C24.8395 9.95927 23.8016 7.45752 21.9564 5.61234C20.1112 3.76716 17.6095 2.72923 15 2.72625Z" fill="#000000"/>
  </g>
  <defs>
    <clipPath id="clip0_12_46">
      <rect width="30" height="30" fill="black"/>
    </clipPath>
  </defs>
</svg>
